<svg width="48" height="19" viewBox="0 0 48 19" fill="none" xmlns="http://www.w3.org/2000/svg">
<path d="M7.17 13.15H5.82V5.55H7.42L10.82 11.23V5.55H12.16V13.15H10.56L7.17 7.5V13.15ZM13.7785 5.55H15.1485V10.27C15.1485 10.81 15.2918 11.2633 15.5785 11.63C15.8652 11.99 16.3118 12.17 16.9185 12.17C17.5252 12.17 17.9652 11.99 18.2385 11.63C18.5185 11.27 18.6585 10.8167 18.6585 10.27V5.55H19.8985V10.31C19.8985 10.91 19.7785 11.4333 19.5385 11.88C19.3052 12.3267 18.9585 12.6767 18.4985 12.93C18.0385 13.1767 17.4852 13.3 16.8385 13.3C16.1918 13.3 15.6385 13.1767 15.1785 12.93C14.7185 12.6767 14.3685 12.3267 14.1285 11.88C13.8952 11.4333 13.7785 10.91 13.7785 10.31V5.55ZM26.3731 13.15H21.5231V5.55H26.3231V6.65H22.8731V8.69H25.7631V9.79H22.8731V12.04H26.3731V13.15ZM29.8843 13.15L27.1043 5.55H28.6143L30.7243 11.59L32.8443 5.55H34.1743L31.4043 13.15H29.8843ZM34.5711 9.26C34.5711 8.51333 34.7211 7.85 35.0211 7.27C35.3278 6.68333 35.7611 6.22667 36.3211 5.9C36.8811 5.56667 37.5344 5.4 38.2811 5.4C39.0344 5.4 39.6911 5.56667 40.2511 5.9C40.8111 6.22667 41.2411 6.68333 41.5411 7.27C41.8411 7.85 41.9911 8.51333 41.9911 9.26V9.44C41.9911 10.1867 41.8411 10.8533 41.5411 11.44C41.2411 12.02 40.8111 12.4767 40.2511 12.81C39.6911 13.1367 39.0344 13.3 38.2811 13.3C37.5344 13.3 36.8811 13.1367 36.3211 12.81C35.7611 12.4767 35.3278 12.02 35.0211 11.44C34.7211 10.8533 34.5711 10.1867 34.5711 9.44V9.26ZM36.0311 9.44C36.0311 9.98667 36.1211 10.47 36.3011 10.89C36.4811 11.31 36.7378 11.6367 37.0711 11.87C37.4111 12.1033 37.8144 12.22 38.2811 12.22C38.7478 12.22 39.1511 12.1033 39.4911 11.87C39.8311 11.6367 40.0878 11.31 40.2611 10.89C40.4411 10.47 40.5311 9.98667 40.5311 9.44V9.26C40.5311 8.71333 40.4411 8.23 40.2611 7.81C40.0878 7.39 39.8311 7.06333 39.4911 6.83C39.1511 6.59667 38.7478 6.48 38.2811 6.48C37.8144 6.48 37.4111 6.59667 37.0711 6.83C36.7378 7.06333 36.4811 7.39 36.3011 7.81C36.1211 8.23 36.0311 8.71333 36.0311 9.26V9.44Z" fill="#EA0029"/>
<path d="M4.40625 1L1 5.5V18H42.5938L46.5104 13.75L47 1H4.40625Z" stroke="#EA0029"/>
</svg>
