<svg xmlns="http://www.w3.org/2000/svg" width="130" height="27" viewBox="0 0 130 27" fill="none">
<path d="M130 2.29841C130 1.0906 129.088 0.280294 127.715 0.280294H118.809C117.84 0.280294 117.188 0.494337 116.472 0.907135L75.9569 24.141C75.8357 24.2072 75.7434 24.248 75.6453 24.248C75.501 24.248 75.426 24.1257 75.426 23.9168V2.29841C75.426 1.0906 74.5141 0.280294 73.1405 0.280294H53.3851C52.3751 0.280294 51.8384 0.417894 50.9612 0.88675L14.238 20.3749C14.1168 20.4411 14.0129 20.4921 13.9148 20.4921C13.7647 20.4921 13.6954 20.3952 13.6954 20.1863V0.484145C13.7012 0.152888 13.6089 0 13.4473 0C13.3607 0 13.2626 0.0254813 13.1529 0.0815402L2.28546 5.85051C0.461709 6.8188 0 7.85844 0 9.67271V24.4111C0 25.6189 0.911876 26.4292 2.28546 26.4292H15.3114C16.1483 26.4292 16.7427 26.2814 17.5969 25.8279L31.7541 18.316C31.8406 18.2701 31.9387 18.2344 32.0138 18.2344C32.1061 18.2344 32.1754 18.2803 32.2562 18.3516L40.717 25.8228C41.2479 26.2916 42.0098 26.4241 43.0024 26.4241H55.6302C55.8668 26.4241 56.0746 26.3579 56.0746 26.2101C56.0746 26.0827 55.9476 25.9553 55.7629 25.7922L41.8078 13.4745C41.6693 13.3522 41.6346 13.2809 41.6346 13.2095C41.6346 13.128 41.6866 13.0413 41.8828 12.9394L61.4189 2.57871C61.5401 2.51246 61.6382 2.47169 61.7363 2.47169C61.8748 2.47169 61.9556 2.61948 61.9556 2.77746V24.4111C61.9556 25.6189 62.8675 26.4292 64.2411 26.4292H83.8753C84.6371 26.4292 85.3181 26.2865 86.1492 25.8126L115.768 8.82163C115.889 8.75538 115.981 8.71971 116.079 8.71971C116.23 8.71971 116.299 8.8675 116.299 9.05606V26.5821C116.299 26.9083 116.42 27 116.547 27C116.651 27 116.766 26.9592 116.911 26.8828L127.715 21.1546C129.544 20.1863 130 19.1365 130 17.3222V2.29841Z" fill="#05141F"/>
</svg> 