<svg width="80" height="80" viewBox="0 0 80 80" fill="none" xmlns="http://www.w3.org/2000/svg">
<path d="M30.5743 31.4574C31.5462 30.7834 32.4764 30.1354 33.5319 29.4045C35.1623 31.7321 36.7299 33.9716 38.2662 36.1696C42.0495 32.4268 45.7962 28.7202 49.6683 24.8893C50.5776 25.9364 51.283 26.7607 51.9258 27.502C47.2541 32.0587 42.478 36.7243 37.634 41.4572C35.4601 38.3831 33.0512 34.9669 30.5743 31.4625V31.4574Z" fill="white"/>
<path d="M62.5546 27.9373C62.0373 27.2997 61.4938 26.6465 61.3423 26.18C61.1698 25.6616 61.2169 24.7803 61.2587 23.9353C61.3423 22.3076 61.4363 20.4673 60.3076 18.9173C59.1685 17.3569 57.282 16.8592 55.7614 16.4549C54.9462 16.2372 54.0997 16.0091 53.6608 15.7032C53.2427 15.4025 52.7724 14.6768 52.3126 13.9821C51.4556 12.6654 50.3896 11.0325 48.5188 10.4259C46.716 9.85053 44.9916 10.4985 43.471 11.0739C42.661 11.385 41.8145 11.7012 41.2449 11.7012C40.6753 11.7012 39.8288 11.3798 39.0188 11.0739C37.4982 10.4985 35.7738 9.84534 33.971 10.4259C32.1055 11.0273 31.0395 12.6654 30.1773 13.977C29.7226 14.6768 29.2471 15.4025 28.8291 15.698C28.4006 16.0143 27.5488 16.2372 26.7284 16.4497C25.213 16.8541 23.3318 17.3517 22.1822 18.9121C21.0535 20.4569 21.1423 22.3024 21.2312 23.9302C21.273 24.7803 21.32 25.6564 21.1476 26.1748C20.996 26.6414 20.4578 27.2997 19.9352 27.9322C18.9319 29.1556 17.683 30.6797 17.683 32.6496C17.683 34.6195 18.9319 36.1487 19.9352 37.367C20.4526 38.0046 20.996 38.6578 21.1476 39.1243C21.32 39.6427 21.273 40.524 21.2312 41.369C21.1476 42.9967 21.0535 44.837 22.1822 46.387C23.3214 47.9474 25.2078 48.4451 26.7284 48.8494C27.5436 49.0672 28.3901 49.2952 28.8291 49.6011C29.2471 49.9018 29.7174 50.6275 30.1773 51.3222C31.0342 52.6389 32.1003 54.2718 33.971 54.8784C35.7738 55.4538 37.4982 54.8058 39.0188 54.2304C39.8288 53.9193 40.6753 53.6031 41.2449 53.6031C41.8145 53.6031 42.661 53.9245 43.471 54.2304C44.5736 54.6503 45.7807 55.1065 47.0505 55.1065C47.5312 55.1065 48.0276 55.0443 48.5188 54.8784C50.3844 54.277 51.4504 52.6389 52.3126 51.3274C52.7672 50.6275 53.2427 49.9018 53.6608 49.6063C54.0892 49.2901 54.941 49.0672 55.7614 48.8546C57.2768 48.4503 59.158 47.9526 60.3076 46.3922C61.4363 44.8474 61.3475 43.0019 61.2587 41.3742C61.2169 40.524 61.1698 39.6479 61.3423 39.1295C61.4938 38.663 62.032 38.0046 62.5546 37.3721C63.5579 36.1487 64.8068 34.6247 64.8068 32.6548C64.8068 30.6848 63.5579 29.1556 62.5546 27.9373ZM59.367 34.8009C58.6459 35.6822 57.8255 36.6775 57.4336 37.875C57.026 39.114 57.0991 40.4307 57.1566 41.5919C57.2037 42.4939 57.2611 43.624 56.9842 44.0024C56.702 44.3964 55.589 44.6867 54.7059 44.9252C53.5771 45.2258 52.3021 45.568 51.2518 46.3248C50.2119 47.0713 49.5012 48.1703 48.869 49.1294C48.3621 49.9018 47.7402 50.8608 47.2647 51.0163C46.8415 51.1511 45.7963 50.7519 44.955 50.4409C43.842 50.021 42.5931 49.5441 41.2554 49.5441C39.9176 49.5441 38.6635 50.021 37.5557 50.4409C36.7144 50.7623 35.6693 51.1511 35.246 51.0163C34.7705 50.866 34.1434 49.9018 33.6418 49.1294C33.0147 48.1703 32.2988 47.0713 31.2589 46.3248C30.2086 45.568 28.9284 45.231 27.8049 44.9304C26.9165 44.6919 25.8087 44.4016 25.5266 44.0076C25.2496 43.6344 25.3071 42.5043 25.3541 41.5971C25.4116 40.4359 25.4795 39.1191 25.0772 37.8802C24.6905 36.6827 23.8648 35.6874 23.1437 34.8061C22.5219 34.0492 21.8164 33.1835 21.8164 32.6651C21.8164 32.1467 22.5219 31.281 23.1437 30.5241C23.8648 29.6429 24.6852 28.6476 25.0772 27.4501C25.4847 26.2111 25.4116 24.8944 25.3541 23.7332C25.3071 22.8312 25.2496 21.701 25.5266 21.3226C25.8087 20.9286 26.9218 20.6383 27.8049 20.3999C28.9336 20.0992 30.2086 19.7571 31.2589 19.0002C32.2988 18.2537 33.0095 17.1547 33.6418 16.1957C34.1487 15.4233 34.7705 14.4642 35.246 14.3087C35.6693 14.1739 36.7144 14.5731 37.5557 14.8841C38.6687 15.304 39.9176 15.781 41.2554 15.781C42.5931 15.781 43.8472 15.304 44.955 14.8841C45.7963 14.5627 46.8415 14.1739 47.2647 14.3087C47.7402 14.4591 48.3673 15.4233 48.869 16.1957C49.496 17.1547 50.2119 18.2537 51.2518 19.0002C52.3021 19.7571 53.5824 20.094 54.7059 20.3947C55.5942 20.6332 56.702 20.9235 56.9842 21.3174C57.2611 21.6907 57.2037 22.8208 57.1566 23.728C57.0991 24.8892 57.0312 26.2059 57.4336 27.4449C57.8203 28.6424 58.6459 29.6377 59.367 30.519C59.9889 31.2758 60.6943 32.1415 60.6943 32.6599C60.6943 33.1783 59.9889 34.044 59.367 34.8009Z" fill="white"/>
<path d="M47.0608 55.2983C45.7387 55.2983 44.5003 54.8266 43.4081 54.4118C42.6086 54.1112 41.783 53.795 41.25 53.795C40.717 53.795 39.813 54.1371 39.0919 54.4118C37.5451 54.9976 35.7893 55.6612 33.9134 55.0598C31.9747 54.4274 30.8878 52.7634 30.0151 51.4207L29.9681 51.3533C29.5396 50.7001 29.0902 50.0262 28.7192 49.7567C28.3064 49.4664 27.4442 49.2383 26.6865 49.0361C25.1397 48.6266 23.2167 48.1185 22.0305 46.5011C20.86 44.8993 20.9541 43.0227 21.0429 41.3638C21.0847 40.5085 21.1265 39.6635 20.9697 39.1866C20.8339 38.7719 20.3375 38.1601 19.8567 37.5692L19.794 37.4914C18.8273 36.3147 17.5 34.7076 17.5 32.6496C17.5 30.5916 18.7698 29.0519 19.794 27.8078C20.2539 27.2531 20.8234 26.5636 20.9697 26.1126C21.1265 25.6357 21.0847 24.7959 21.0429 23.982C20.9541 22.3646 20.8496 20.4103 22.0305 18.7981C23.2167 17.1859 25.1397 16.6726 26.6865 16.2631C27.4912 16.0506 28.3221 15.8328 28.7192 15.5425C29.1216 15.2574 29.618 14.4902 30.0151 13.8733C30.8982 12.5255 31.9851 10.8614 33.9134 10.2394C35.7841 9.63283 37.5399 10.3016 39.0866 10.8874C39.8914 11.1932 40.717 11.5042 41.25 11.5042C41.783 11.5042 42.687 11.1621 43.4081 10.8874C44.9549 10.3016 46.7107 9.63802 48.5866 10.2394C50.5253 10.8718 51.6122 12.5358 52.4849 13.8785L52.5267 13.9407C52.9604 14.5939 53.4046 15.273 53.7808 15.5477C54.1936 15.838 55.0558 16.0661 55.8135 16.2683C57.3603 16.6778 59.2833 17.1859 60.4642 18.8033C61.6348 20.4051 61.5407 22.2869 61.4571 23.9406C61.4153 24.7959 61.3735 25.6409 61.5303 26.1178C61.6661 26.5325 62.1625 27.1442 62.6433 27.7352L62.706 27.813C63.6727 28.9897 65 30.6019 65 32.6548C65 34.7076 63.7302 36.2525 62.706 37.4966C62.2723 38.0202 61.6766 38.7408 61.5303 39.1918C61.3735 39.6687 61.4153 40.5085 61.4571 41.3224C61.5459 42.9398 61.6504 44.8941 60.4695 46.5063C59.2833 48.1185 57.3603 48.6317 55.8188 49.0413C55.014 49.2538 54.1832 49.4715 53.786 49.7618C53.3837 50.047 52.8872 50.8142 52.4901 51.4311C51.607 52.7789 50.5201 54.443 48.5919 55.065C48.1111 55.2257 47.6095 55.3035 47.0608 55.3035V55.2983ZM41.25 53.4062C41.8562 53.4062 42.7184 53.7328 43.5492 54.049C44.61 54.4533 45.8119 54.9095 47.0608 54.9095C47.5677 54.9095 48.0275 54.8369 48.4664 54.6918C50.2588 54.1112 51.3091 52.5145 52.1452 51.2289C52.6834 50.3995 53.1224 49.7463 53.5509 49.4456C54.0055 49.1087 54.8729 48.8858 55.7142 48.6628C57.1983 48.2689 59.0481 47.7764 60.1507 46.2782C61.2481 44.7801 61.154 42.976 61.0652 41.3846C61.0234 40.4877 60.9763 39.6117 61.1592 39.0673C61.316 38.5852 61.8177 37.958 62.4029 37.2478C63.3853 36.0503 64.6081 34.5573 64.6081 32.6548C64.6081 30.7523 63.3853 29.2541 62.4029 28.0618L62.335 27.984C61.8072 27.336 61.3108 26.7243 61.154 26.2422C60.9763 25.6979 61.0182 24.8166 61.06 23.9665C61.1436 22.3335 61.2324 20.5243 60.1455 19.0365C59.0429 17.528 57.1931 17.0407 55.709 16.6519C54.92 16.4446 54.0212 16.2061 53.5457 15.8691C53.1119 15.5529 52.6416 14.8479 52.1922 14.1636L52.1504 14.0962C51.3091 12.8054 50.264 11.2036 48.4612 10.6178C46.7159 10.0631 45.0281 10.7007 43.544 11.2606C42.7602 11.5613 41.8666 11.9034 41.2448 11.9034C40.6229 11.9034 39.7764 11.5768 38.9455 11.2606C37.451 10.6955 35.7632 10.0579 34.0283 10.6178C32.236 11.1984 31.1856 12.795 30.3496 14.0807C29.8113 14.9101 29.3724 15.5581 28.9491 15.8639C28.4893 16.2009 27.6271 16.4238 26.7858 16.6467C25.3017 17.0407 23.4519 17.5332 22.3493 19.0365C21.2519 20.5347 21.3512 22.3387 21.4348 23.9302C21.4766 24.827 21.5237 25.7031 21.3408 26.2474C21.184 26.7295 20.6823 27.3568 20.0971 28.067C19.1147 29.2645 17.8919 30.7575 17.8919 32.66C17.8919 34.5625 19.1147 36.0606 20.0971 37.253L20.1598 37.3307C20.6614 37.9476 21.184 38.5904 21.3408 39.0725C21.5184 39.6168 21.4766 40.4981 21.4348 41.3483C21.3512 42.9812 21.2624 44.7904 22.3493 46.2782C23.4519 47.7868 25.3017 48.274 26.7858 48.6628C27.5748 48.8702 28.4736 49.1087 28.9491 49.4456C29.3828 49.7618 29.8479 50.4669 30.2973 51.146L30.3443 51.2185C31.1856 52.5093 32.2307 54.1112 34.0336 54.697C35.7789 55.2568 37.4667 54.614 38.9508 54.0542C39.7398 53.7535 40.6282 53.4113 41.25 53.4113V53.4062ZM35.4601 51.2341C35.3556 51.2341 35.2668 51.2237 35.1884 51.1978C34.6763 51.0319 34.1119 50.2077 33.4796 49.2279C32.8421 48.2533 32.1471 47.1906 31.1491 46.4752C30.1249 45.7391 28.8707 45.4073 27.7629 45.1118L27.7002 45.0963C26.7544 44.8423 25.6884 44.5571 25.3696 44.1165C25.0718 43.7173 25.0979 42.7739 25.1658 41.5867C25.2233 40.4463 25.2913 39.1555 24.8993 37.9424C24.5231 36.7812 23.7184 35.8014 23.0025 34.9357C22.3232 34.1063 21.6229 33.2561 21.6229 32.6652C21.6229 32.1157 22.2186 31.3484 22.9972 30.3998C23.7079 29.534 24.5179 28.5491 24.8941 27.3879C25.286 26.1956 25.2181 24.9048 25.1606 23.7643C25.0979 22.5409 25.077 21.6078 25.3644 21.2086C25.6832 20.768 26.7596 20.4777 27.7054 20.2237C28.7976 19.9334 30.104 19.5912 31.1438 18.8447C32.1419 18.1242 32.8421 17.0614 33.4587 16.118C34.1381 15.076 34.6815 14.288 35.1832 14.1221C35.6273 13.9822 36.5 14.2777 37.5869 14.6872L37.6705 14.7183C38.7522 15.1278 39.975 15.5892 41.2552 15.5892C42.5355 15.5892 43.7844 15.1226 44.8765 14.7079C45.9007 14.3139 46.857 13.977 47.3221 14.1273C47.8342 14.2932 48.3985 15.1175 49.0308 16.0972C49.6683 17.0718 50.3633 18.1345 51.3614 18.8499C52.3804 19.586 53.6397 19.9178 54.7475 20.2133L54.8102 20.2288C55.7561 20.4829 56.8273 20.7732 57.1408 21.2086C57.4334 21.6078 57.4125 22.5513 57.3446 23.7384C57.2871 24.8788 57.2192 26.1697 57.6111 27.3827C57.9873 28.5387 58.7921 29.5185 59.5027 30.3842C60.1873 31.2188 60.8823 32.069 60.8823 32.66C60.8823 33.2095 60.2866 33.9767 59.508 34.9254C58.7973 35.7963 57.9926 36.776 57.6111 37.9372C57.2192 39.1295 57.2871 40.4204 57.3446 41.5556V41.6075C57.4073 42.7842 57.4282 43.7173 57.1408 44.1165C56.8221 44.5571 55.7456 44.8474 54.7946 45.1015C53.7024 45.3918 52.396 45.7339 51.3562 46.4804C50.3529 47.201 49.6579 48.2637 49.0413 49.2072C48.4769 50.0729 47.8551 51.0215 47.3168 51.203C46.8674 51.3429 46 51.0475 44.9131 50.6379L44.8347 50.6068C43.753 50.1973 42.5303 49.7359 41.2448 49.7359C39.9593 49.7359 38.7104 50.2077 37.6183 50.6224C36.7351 50.9593 35.9565 51.2393 35.4497 51.2393L35.4601 51.2341ZM35.4549 14.4798C35.3974 14.4798 35.3452 14.485 35.3034 14.5006C34.8958 14.6354 34.2373 15.641 33.8036 16.3098C33.1504 17.3051 32.4345 18.4041 31.3738 19.1661C30.2764 19.9541 28.9334 20.3118 27.8518 20.5969C27.0105 20.8198 25.9183 21.1153 25.6779 21.4419C25.4428 21.7633 25.5055 22.9297 25.5421 23.7021C25.6048 24.9203 25.6727 26.2474 25.2599 27.5123C24.8575 28.7409 24.0267 29.7518 23.2951 30.6486C22.7517 31.307 22.0096 32.2141 22.0096 32.6703C22.0096 33.1265 22.7203 33.9922 23.2951 34.6869C24.0319 35.5837 24.8628 36.5946 25.2651 37.8232C25.6779 39.1036 25.6048 40.4929 25.5473 41.6075C25.5055 42.3436 25.4428 43.567 25.6779 43.8936C25.9131 44.2202 27 44.5105 27.7943 44.723L27.8518 44.7386C28.9961 45.0393 30.2921 45.3866 31.3738 46.1642C32.4293 46.921 33.1504 48.02 33.7827 48.9842C34.2112 49.6478 34.8905 50.695 35.3086 50.8297C35.6796 50.949 36.8553 50.498 37.4876 50.2595C38.6111 49.8344 39.8861 49.3471 41.2552 49.3471C42.6243 49.3471 43.8732 49.824 44.981 50.2439L44.9915 50.4565L45.0594 50.2751C45.7701 50.5394 46.8465 50.9438 47.2019 50.8349C47.6095 50.7001 48.2417 49.7307 48.7016 49.0257C49.3548 48.0304 50.0707 46.9314 51.1315 46.1694C52.2288 45.3814 53.5718 45.0237 54.6535 44.7386C55.4948 44.5157 56.5869 44.2202 56.8273 43.8936C57.0624 43.5722 56.9997 42.4058 56.9631 41.6334L57.1565 41.5712L56.9631 41.5816C56.9004 40.41 56.8325 39.0829 57.2505 37.8232C57.6529 36.5946 58.4838 35.5837 59.2153 34.6921C59.7588 34.0285 60.5008 33.1265 60.5008 32.6652C60.5008 32.2038 59.7902 31.3432 59.2153 30.6486C58.4733 29.7466 57.6477 28.7409 57.2453 27.5123C56.8325 26.2319 56.9057 24.8426 56.9631 23.728C57.0049 22.9452 57.0677 21.7633 56.8325 21.4471C56.5974 21.1205 55.5105 20.825 54.7162 20.6125L54.6587 20.5969C53.5143 20.2962 52.2184 19.9489 51.1367 19.1713C50.0811 18.4145 49.36 17.3206 48.7277 16.3512C48.2992 15.6877 47.6199 14.6405 47.2019 14.5058C46.8309 14.3865 45.6551 14.8375 45.0228 15.0812C43.8941 15.5114 42.6243 15.9935 41.2552 15.9935C39.8861 15.9935 38.6425 15.5166 37.5294 15.0967L37.519 14.8842L37.451 15.0656C36.8188 14.8323 35.9043 14.4902 35.4601 14.4902L35.4549 14.4798Z" fill="white"/>
<path d="M34.2631 70.0001C33.4897 70.0001 32.779 69.5802 32.4185 68.9011L28.933 62.4004L21.6016 63.3647C20.8335 63.4631 20.0705 63.1366 19.6212 62.5041C19.1718 61.8769 19.1143 61.0474 19.4696 60.3631L25.9806 47.735C26.5084 46.7138 27.7677 46.3146 28.7919 46.833C29.8214 47.3566 30.229 48.6059 29.7012 49.622L25.0034 58.7302L29.8214 58.0978C30.6888 57.9837 31.5301 58.414 31.9429 59.1812L34.2317 63.4476L38.919 54.3549C39.4468 53.3337 40.7061 52.9345 41.7303 53.4529C42.7598 53.9765 43.1674 55.2258 42.6396 56.2419L36.1286 68.87C35.7732 69.5595 35.0626 69.9949 34.284 70.0001H34.2683H34.2631Z" fill="white"/>
<path d="M48.2419 70H48.2263C47.4477 69.9948 46.737 69.5593 46.3816 68.8699L39.8706 56.2417C39.3429 55.2205 39.7505 53.9712 40.7799 53.4528C41.8041 52.9292 43.0687 53.3335 43.5912 54.3548L48.2785 63.4474L50.5673 59.181C50.9749 58.419 51.8214 57.9887 52.6889 58.0976L57.5068 58.73L52.809 49.6218C52.2813 48.6006 52.6889 47.3513 53.7183 46.8329C54.7425 46.3093 56.0071 46.7136 56.5296 47.7349L63.0406 60.363C63.396 61.0473 63.3332 61.8715 62.8891 62.504C62.4397 63.1312 61.6768 63.463 60.9086 63.3645L53.5772 62.4003L50.0918 68.901C49.726 69.5801 49.0205 70 48.2472 70H48.2419Z" fill="white"/>
</svg>


