<svg width="80" height="80" viewBox="0 0 80 80" fill="none" xmlns="http://www.w3.org/2000/svg">
    <path d="M64.9951 67.5H60.1166C60.0337 67.026 59.9264 66.5471 59.8678 66.0585C58.8873 58.1372 54.9259 52.4101 47.5691 49.1116C46.4666 48.6181 45.4031 47.9046 44.5055 47.0935C42.0077 44.8358 39.4123 44.572 36.373 46.2725C35.7827 46.5999 34.7972 46.727 34.2118 46.4631C28.4893 43.9074 25.2647 39.4117 24.9817 33.1715C24.7036 27.0094 27.4161 22.1912 32.8751 19.2739C38.4024 16.3175 43.9688 16.6889 48.9693 20.5004C56.5407 26.2715 57.1017 36.4211 50.4328 43.3014C50.1889 43.5555 49.9742 43.839 49.6474 44.2299C59.1556 49.0335 64.5512 56.4465 65 67.4902L64.9951 67.5ZM49.8181 32.4482C49.784 26.9312 45.4177 22.5577 39.9441 22.5675C34.5289 22.5773 30.07 27.0534 30.07 32.4824C30.07 38.107 34.4606 42.4609 40.0855 42.417C45.5885 42.373 49.8523 38.0043 49.8181 32.4434V32.4482Z" fill="white"/><path d="M61.0727 38.7324H56.0771C56.0771 36.4797 55.3648 33.9875 56.2186 32.287C58.2578 28.236 55.9795 25.4017 54.1501 22.5528C51.6084 18.5849 47.7641 16.1416 43.0905 15.345C33.9531 13.796 25.3962 19.3032 23.1326 28.06C20.8348 36.9439 25.5035 45.7594 34.1921 49.0286C35.4557 49.5026 36.4167 49.6149 37.5388 48.4764C39.1097 46.8833 41.5489 47.1765 42.8563 48.8038C44.1882 50.4603 43.9686 52.8939 42.3685 54.2084C40.7586 55.5327 38.4608 55.2346 36.9631 53.6953C36.1972 52.9085 35.2459 52.1071 34.2312 51.7846C24.8644 48.8233 18.8785 39.8026 20.0201 30.1906C21.1617 20.5249 29.2453 12.931 38.817 12.5206C48.9642 12.0856 57.204 18.5898 59.6969 28.3337C60.5702 31.7446 61.7459 34.9648 61.0775 38.7324H61.0727Z" fill="white"/><path d="M23.8011 48.2858C25.1963 49.4146 26.455 50.4311 27.8941 51.599C22.8693 55.6549 20.3373 60.9764 19.9373 67.4414H15.0003C14.9661 59.701 18.1664 53.5683 23.8011 48.2858Z" fill="white"/>
</svg>
